<svg width="300" height="300" viewBox="0 0 300 300" fill="none" xmlns="http://www.w3.org/2000/svg">
  <rect width="300" height="300" fill="#2F2F2F"/>
  <circle cx="150" cy="150" r="80" fill="#007BBD"/>
  <path d="M150 70C185.899 70 215 99.1015 215 135C215 170.899 185.899 200 150 200C114.101 200 85 170.899 85 135C85 99.1015 114.101 70 150 70ZM150 90C125.147 90 105 110.147 105 135C105 159.853 125.147 180 150 180C174.853 180 195 159.853 195 135C195 110.147 174.853 90 150 90Z" fill="#F8F8F8"/>
  <rect x="140" y="220" width="20" height="40" fill="#F4791F"/>
</svg>
