<?xml version="1.0" encoding="UTF-8"?>
<svg width="100" height="100" viewBox="0 0 100 100" xmlns="http://www.w3.org/2000/svg">
  <path d="M40,30 L40,70 C40,75 35,80 30,80 C25,80 20,75 20,70 C20,65 25,60 30,60 C32,60 34,61 35,62 L35,30 L40,30 Z" fill="none" stroke="#50E3C2" stroke-width="2"/>
  <path d="M70,20 L70,60 C70,65 65,70 60,70 C55,70 50,65 50,60 C50,55 55,50 60,50 C62,50 64,51 65,52 L65,20 L70,20 Z" fill="none" stroke="#50E3C2" stroke-width="2"/>
  <circle cx="30" cy="70" r="5" fill="#50E3C2" opacity="0.7"/>
  <circle cx="60" cy="60" r="5" fill="#50E3C2" opacity="0.7"/>
</svg>
