<?xml version="1.0" encoding="UTF-8"?>
<svg width="100" height="100" viewBox="0 0 100 100" xmlns="http://www.w3.org/2000/svg">
  <path d="M50,20 C65,20 75,30 75,45 C75,60 65,70 50,70 C35,70 25,60 25,45 C25,30 35,20 50,20 Z" fill="none" stroke="#00a1ff" stroke-width="2"/>
  <path d="M40,35 C45,30 55,30 60,35 C65,40 65,50 60,55 C55,60 45,60 40,55 C35,50 35,40 40,35 Z" fill="none" stroke="#00a1ff" stroke-width="2"/>
  <circle cx="50" cy="45" r="5" fill="#00a1ff" opacity="0.7"/>
  <path d="M30,45 L70,45" stroke="#00a1ff" stroke-width="1" stroke-dasharray="2,2"/>
  <path d="M50,25 L50,65" stroke="#00a1ff" stroke-width="1" stroke-dasharray="2,2"/>
</svg>
